<?xml version="1.0" standalone="no"?>
<!DOCTYPE svg PUBLIC "-//W3C//DTD SVG 20010904//EN"
 "http://www.w3.org/TR/2001/REC-SVG-20010904/DTD/svg10.dtd">
<svg version="1.0" xmlns="http://www.w3.org/2000/svg"
 width="16.000000pt" height="16.000000pt" viewBox="0 0 16.000000 16.000000"
 preserveAspectRatio="xMidYMid meet">
<metadata>
Created by potrace 1.11, written by Peter Selinger 2001-2013
</metadata>
<g transform="translate(0.000000,16.000000) scale(0.001044,-0.001044)"
fill="#000000" stroke="none">
<path d="M7624 15252 c-1 -20 -4 -75 -8 -122 -5 -46 -9 -107 -11 -135 -4 -60
-19 -244 -30 -365 -2 -25 -7 -81 -10 -125 -3 -44 -8 -100 -10 -125 -2 -25 -7
-85 -10 -135 -4 -49 -8 -106 -10 -125 -2 -19 -6 -75 -10 -124 -3 -49 -8 -107
-10 -130 -2 -22 -6 -77 -10 -121 -3 -44 -7 -100 -10 -125 -2 -25 -7 -79 -10
-120 -3 -41 -7 -102 -10 -135 -14 -180 -17 -214 -20 -260 -3 -27 -7 -81 -10
-120 -3 -38 -7 -92 -10 -120 -5 -48 -12 -145 -20 -270 -3 -33 -7 -87 -10 -120
-3 -33 -7 -91 -10 -130 -3 -38 -7 -92 -10 -120 -2 -27 -7 -86 -11 -130 -6 -91
-10 -133 -20 -260 -4 -49 -8 -103 -9 -120 -1 -16 -3 -38 -4 -47 0 -9 -61 -68
-133 -131 -647 -558 -1051 -1036 -1298 -1536 -115 -234 -197 -492 -225 -718
-2 -13 -6 -40 -10 -60 -3 -21 -8 -123 -10 -228 -2 -104 -6 -226 -9 -270 -3
-44 -8 -134 -11 -200 -3 -66 -8 -147 -10 -180 -2 -33 -7 -121 -10 -195 -3 -74
-8 -164 -10 -200 -2 -36 -7 -119 -10 -185 -22 -425 -26 -497 -30 -570 -7 -139
-17 -321 -20 -375 -2 -30 -7 -120 -11 -200 -4 -80 -8 -163 -9 -185 -2 -22 -3
-54 -4 -70 l-1 -31 -67 0 c-38 0 -224 -4 -415 -7 l-348 -7 -1 22 c0 13 -2 30
-3 38 -2 8 -6 44 -10 80 -4 36 -9 76 -11 90 -1 14 -6 45 -9 70 -3 25 -7 61
-10 80 -3 19 -8 58 -11 85 -6 47 -8 62 -19 148 -3 17 -19 141 -35 275 -17 133
-33 253 -35 265 -3 12 -8 47 -11 77 -3 30 -8 73 -11 95 -3 22 -7 54 -9 70 -3
32 -32 255 -40 315 -3 19 -7 57 -10 84 -3 26 -9 76 -14 110 -6 33 -13 86 -16
116 -3 30 -8 66 -10 80 -2 14 -7 48 -10 75 -3 28 -7 61 -10 75 -2 14 -7 50
-10 80 -3 30 -8 66 -10 80 -2 14 -9 68 -15 120 -6 52 -13 106 -16 120 -2 14
-6 50 -10 80 -3 30 -7 66 -10 80 -2 14 -6 48 -9 75 -4 28 -8 61 -10 75 -5 29
-10 74 -25 190 -6 47 -12 99 -15 115 -4 29 -20 157 -31 247 -2 24 -9 72 -14
108 -5 36 -12 88 -15 115 -3 28 -7 61 -10 75 -2 14 -6 45 -9 70 -10 86 -37
305 -42 330 -2 14 -6 48 -9 75 -3 28 -8 66 -10 85 -3 19 -7 49 -9 65 -2 17
-13 100 -24 185 -12 85 -24 179 -27 209 -4 30 -8 61 -10 70 -1 9 -6 45 -10 81
-4 36 -8 72 -10 80 -1 8 -6 42 -9 75 -4 33 -9 71 -11 85 -2 14 -6 48 -10 75
-5 44 -20 160 -30 235 -2 14 -4 39 -5 55 -1 44 -16 12 -24 -50 -3 -27 -8 -61
-10 -75 -3 -14 -16 -102 -31 -196 -14 -94 -27 -180 -29 -190 -2 -11 -7 -46
-11 -79 -3 -32 -8 -62 -10 -65 -1 -3 -6 -27 -9 -55 -4 -27 -9 -61 -11 -75 -2
-14 -16 -101 -30 -195 -14 -93 -28 -181 -30 -195 -2 -14 -7 -45 -10 -70 -3
-25 -13 -88 -21 -140 -9 -52 -17 -111 -20 -130 -2 -19 -11 -75 -19 -125 -15
-93 -43 -274 -51 -335 -2 -19 -8 -60 -14 -90 -5 -30 -12 -73 -15 -95 -3 -22
-7 -51 -10 -65 -2 -14 -13 -88 -25 -165 -11 -77 -23 -151 -25 -165 -2 -14 -7
-43 -10 -65 -3 -22 -12 -80 -20 -130 -8 -49 -17 -110 -20 -135 -3 -25 -8 -52
-10 -60 -2 -8 -6 -37 -10 -65 -3 -27 -10 -75 -15 -105 -5 -30 -12 -73 -15 -95
-3 -23 -8 -52 -10 -65 -3 -14 -8 -45 -11 -70 -3 -25 -8 -54 -10 -64 -2 -11 -8
-54 -14 -95 -6 -42 -13 -89 -15 -106 -13 -78 -15 -93 -21 -130 -3 -22 -14 -96
-25 -164 -11 -68 -21 -137 -23 -155 -3 -17 -11 -74 -20 -126 -8 -52 -17 -115
-21 -140 -3 -25 -8 -56 -10 -70 -15 -84 -21 -146 -30 -315 -3 -60 -8 -155 -10
-210 -3 -55 -7 -138 -10 -185 -3 -47 -7 -137 -10 -200 -4 -63 -8 -144 -10
-180 -2 -36 -6 -126 -10 -200 -3 -74 -8 -160 -10 -190 -2 -30 -7 -116 -10
-191 -4 -74 -7 -144 -9 -154 -2 -14 -44 -32 -187 -82 -101 -35 -190 -65 -197
-68 -7 -2 -13 -4 -15 -4 -1 0 -33 -12 -72 -26 -38 -15 -97 -36 -130 -47 -33
-11 -96 -33 -140 -48 -44 -16 -192 -68 -330 -115 -137 -48 -340 -118 -450
-157 -300 -104 -655 -228 -700 -243 -193 -65 -646 -222 -750 -260 -72 -26
-151 -54 -177 -63 l-48 -16 0 -2278 0 -2278 3580 0 c1969 0 3581 3 3581 8 1 4
2 993 3 2198 l1 2191 -930 1 c-511 0 -939 1 -951 1 -21 1 -21 2 -21 451 0 406
1 450 16 451 9 0 430 1 936 1 506 0 927 1 935 4 13 3 15 119 15 968 l-1 965
483 0 483 1 0 -969 0 -968 943 -1 c518 -1 954 -1 970 -1 l27 -1 -2 -452 -3
-452 -967 0 -968 0 0 -2198 0 -2198 3595 0 3595 0 0 2324 0 2324 -62 21 c-35
11 -103 32 -153 46 -49 14 -137 40 -195 57 -58 17 -114 32 -125 33 -17 2 -369
105 -722 210 -46 14 -122 37 -170 51 -49 14 -101 30 -118 35 -30 9 -78 23
-760 223 -402 118 -473 140 -561 167 -33 11 -69 21 -80 24 -10 2 -47 12 -81
22 -62 17 -63 18 -64 53 -1 19 -3 44 -4 55 -1 11 -6 56 -9 100 -4 44 -9 100
-11 125 -3 25 -7 77 -10 115 -3 39 -8 88 -10 110 -2 22 -7 72 -10 110 -9 106
-15 176 -20 215 -2 19 -7 75 -10 123 -3 49 -7 103 -10 120 -2 18 -7 68 -11
112 -3 44 -8 98 -9 120 -4 43 -13 150 -21 230 -2 28 -6 79 -9 115 -3 36 -7 81
-10 100 -2 19 -7 60 -11 90 -3 30 -7 58 -9 61 -2 3 -6 26 -9 51 -7 59 -15 116
-21 148 -3 14 -7 43 -10 65 -3 22 -12 81 -20 130 -8 50 -17 113 -20 140 -4 28
-8 57 -10 65 -3 8 -12 67 -20 130 -9 63 -18 126 -21 140 -5 27 -30 194 -38
250 -3 19 -12 80 -21 135 -8 55 -17 114 -20 130 -8 57 -45 309 -50 335 -8 46
-13 85 -20 140 -4 30 -9 64 -11 75 -5 21 -32 199 -39 250 -4 29 -15 101 -36
245 -6 36 -12 81 -15 100 -2 19 -6 42 -9 50 -2 8 -7 38 -10 65 -3 28 -7 61
-10 75 -6 29 -14 83 -21 136 -2 22 -9 66 -14 99 -5 33 -12 78 -15 100 -3 22
-10 65 -15 95 -5 30 -12 73 -15 95 -3 22 -7 51 -10 65 -2 14 -9 61 -15 105 -6
44 -15 103 -20 130 -5 28 -12 70 -15 95 -9 74 -15 115 -19 135 -2 11 -7 40
-10 65 -4 25 -13 86 -21 135 -23 148 -26 168 -31 210 -2 22 -6 50 -9 62 -6 27
-17 103 -18 125 -2 27 -14 11 -15 -19 0 -15 -3 -41 -6 -58 -3 -16 -12 -86 -21
-155 -8 -69 -18 -142 -21 -162 -8 -60 -13 -100 -19 -153 -3 -27 -8 -61 -10
-75 -7 -46 -15 -105 -20 -150 -3 -25 -10 -76 -15 -115 -10 -71 -17 -129 -26
-200 -4 -39 -12 -94 -19 -145 -2 -14 -7 -50 -10 -80 -3 -30 -8 -68 -11 -85 -6
-39 -8 -59 -33 -255 -26 -198 -31 -237 -36 -270 -3 -14 -7 -47 -10 -75 -3 -27
-7 -66 -10 -85 -3 -19 -7 -55 -10 -79 -3 -23 -7 -55 -9 -70 -5 -27 -11 -71
-22 -156 -3 -27 -8 -59 -10 -70 -2 -10 -6 -49 -10 -85 -3 -36 -7 -67 -9 -70
-2 -3 -6 -34 -10 -70 -3 -36 -8 -76 -10 -90 -12 -87 -15 -109 -20 -147 -8 -64
-16 -125 -20 -153 -2 -14 -7 -50 -10 -80 -3 -30 -8 -66 -10 -80 -2 -14 -13
-96 -25 -184 -11 -87 -22 -170 -24 -185 -3 -14 -7 -51 -11 -82 -3 -31 -7 -65
-9 -76 -3 -11 -7 -46 -10 -79 -4 -32 -11 -86 -16 -119 -5 -33 -12 -85 -16
-115 -4 -30 -8 -64 -9 -75 -2 -11 -6 -45 -9 -75 -4 -30 -9 -66 -11 -80 -2 -14
-11 -81 -20 -150 -9 -69 -18 -138 -21 -155 -2 -16 -6 -50 -9 -75 -6 -50 -8
-68 -24 -190 -7 -47 -14 -103 -17 -125 -3 -22 -7 -51 -9 -65 -2 -14 -6 -45 -9
-70 -12 -95 -46 -357 -52 -392 l-6 -38 -81 5 c-74 4 -469 16 -624 19 -63 1
-63 1 -64 31 -1 17 -3 39 -4 50 -1 11 -6 61 -9 110 -4 50 -9 106 -11 125 -4
43 -15 158 -21 225 -2 28 -6 73 -9 100 -3 28 -7 82 -10 120 -3 39 -7 90 -10
115 -2 25 -7 77 -10 115 -3 39 -7 86 -10 105 -2 19 -7 71 -10 115 -4 44 -8 94
-10 110 -2 17 -7 69 -10 116 -3 47 -7 95 -9 105 -2 10 -7 69 -11 129 -4 61 -8
117 -10 126 -2 8 -6 56 -10 105 -3 49 -8 100 -10 114 -2 14 -6 65 -10 114 -4
50 -9 99 -12 110 -2 12 -6 136 -8 276 -2 140 -6 266 -9 280 -2 14 -10 59 -16
100 -30 195 -69 342 -144 545 -31 82 -26 72 -110 247 -79 168 -129 256 -245
433 -184 282 -464 606 -731 843 -41 37 -84 75 -95 86 -11 10 -81 64 -156 120
-75 55 -148 110 -162 121 -27 21 -27 17 -43 200 -3 33 -9 101 -14 150 -5 50
-12 115 -14 145 -3 30 -8 80 -11 110 -3 30 -8 78 -11 105 -2 28 -6 66 -9 85
-2 19 -7 67 -10 105 -4 39 -8 88 -10 110 -2 22 -7 69 -10 105 -3 36 -8 76 -10
90 -2 14 -6 54 -9 90 -7 83 -18 198 -21 230 -2 14 -6 57 -9 95 -4 39 -8 84
-11 100 -2 17 -7 66 -10 110 -4 44 -9 88 -10 97 -2 9 -7 57 -10 105 -4 48 -8
95 -10 103 -2 8 -7 51 -11 95 -4 44 -8 91 -9 105 -2 14 -6 57 -9 95 -4 39 -9
92 -12 120 -3 27 -8 70 -10 95 -2 25 -6 72 -10 105 -11 102 -11 108 -19 195
-4 47 -9 92 -10 101 -2 8 -6 49 -10 90 -3 41 -8 88 -9 104 -2 17 -7 64 -10
105 -4 41 -9 86 -11 100 -2 14 -7 66 -11 115 -4 50 -8 93 -8 97 -1 3 -3 9 -6
12 -3 3 -6 -12 -6 -32z"/>
</g>
</svg>
